<?xml version="1.0" encoding="UTF-8"?>
<svg version="1.1" xmlns="http://www.w3.org/2000/svg" width="96" height="96">
<path d="M0 0 C31.68 0 63.36 0 96 0 C96 31.68 96 63.36 96 96 C64.32 96 32.64 96 0 96 C0 64.32 0 32.64 0 0 Z " fill="#010101" transform="translate(0,0)"/>
<path d="M0 0 C3.63 0 7.26 0 11 0 C11 18.48 11 36.96 11 56 C-20.68 56 -52.36 56 -85 56 C-85 46.43 -85 36.86 -85 27 C-80.71 27 -76.42 27 -72 27 C-72 21.72 -72 16.44 -72 11 C-68.80845689 14.19154311 -65.70261618 17.34304909 -62.6875 20.6875 C-61.99011719 21.45449219 -61.29273437 22.22148438 -60.57421875 23.01171875 C-59 25 -59 25 -59 27 C-53.72 26.67 -48.44 26.34 -43 26 C-43 26.66 -43 27.32 -43 28 C-42.01 28 -41.02 28 -40 28 C-39.7525 27.278125 -39.505 26.55625 -39.25 25.8125 C-37.89016326 22.75286734 -36.17082246 20.5326262 -34 18 C-32.25 18.625 -32.25 18.625 -30 20 C-29.566875 21.0003125 -29.13375 22.000625 -28.6875 23.03125 C-27.69899933 24.74813669 -27.69899933 24.74813669 -26 26 C-21.59437002 26.93181023 -17.24000599 26.88321543 -12.75 26.875 C-8.5425 26.91625 -4.335 26.9575 0 27 C0 18.09 0 9.18 0 0 Z " fill="#010101" transform="translate(85,40)"/>
<path d="M0 0 C11 0 11 0 13.9375 2.265625 C14.618125 3.25046875 15.29875 4.2353125 16 5.25 C16.70125 6.22453125 17.4025 7.1990625 18.125 8.203125 C18.74375 9.12609375 19.3625 10.0490625 20 11 C20.99 12.32 21.98 13.64 23 15 C23.33 10.05 23.66 5.1 24 0 C37.61733615 -0.9640592 37.61733615 -0.9640592 41.5546875 1.78125 C43.25055547 3.77970023 44.69687083 5.7283974 46 8 C46.763125 7.236875 47.52625 6.47375 48.3125 5.6875 C49.199375 4.800625 50.08625 3.91375 51 3 C51.556875 2.401875 52.11375 1.80375 52.6875 1.1875 C54 0 54 0 56 0 C56.495 0.99 56.495 0.99 57 2 C57.66 1.34 58.32 0.68 59 0 C61.65291757 -0.17510386 64.19986174 -0.23155483 66.8515625 -0.1953125 C67.62559418 -0.1924826 68.39962585 -0.18965271 69.19711304 -0.18673706 C71.67323157 -0.17552754 74.1489905 -0.15042203 76.625 -0.125 C78.30207812 -0.11497118 79.97916189 -0.10584516 81.65625 -0.09765625 C85.77097223 -0.07558574 89.88542511 -0.04105102 94 0 C94 3.3 94 6.6 94 10 C90.7 10 87.4 10 84 10 C84 18.91 84 27.82 84 37 C79.83375 37.165 75.6675 37.33 71.375 37.5 C70.07224121 37.57283203 68.76948242 37.64566406 67.42724609 37.72070312 C59.02196571 37.88206785 59.02196571 37.88206785 55.89550781 35.18359375 C54.2890625 32.96875 54.2890625 32.96875 53.03759766 30.73242188 C52.69519043 30.16072266 52.3527832 29.58902344 52 29 C51.34 29 50.68 29 50 29 C48.38126547 31.27254095 46.97633728 33.64279653 45.53515625 36.03125 C45.02855469 36.6809375 44.52195313 37.330625 44 38 C43.01 38 42.02 38 41 38 C41 37.34 41 36.68 41 36 C40.01 36.495 40.01 36.495 39 37 C34.07580374 38.0116376 29.89358749 38.24619309 25 37 C20.30847408 33.27931856 17.17945607 27.9945242 14 23 C13.67 22.67 13.34 22.34 13 22 C12.67 26.95 12.34 31.9 12 37 C8.04 37 4.08 37 0 37 C0 24.79 0 12.58 0 0 Z " fill="#0D0D0D" transform="translate(1,30)"/>
<path d="M0 0 C11 0 11 0 13.9375 2.265625 C14.618125 3.25046875 15.29875 4.2353125 16 5.25 C16.70125 6.22453125 17.4025 7.1990625 18.125 8.203125 C18.74375 9.12609375 19.3625 10.0490625 20 11 C20.99 12.32 21.98 13.64 23 15 C23.33 10.05 23.66 5.1 24 0 C37.61733615 -0.9640592 37.61733615 -0.9640592 41.5546875 1.78125 C43.25055547 3.77970023 44.69687083 5.7283974 46 8 C46.763125 7.236875 47.52625 6.47375 48.3125 5.6875 C49.199375 4.800625 50.08625 3.91375 51 3 C51.556875 2.401875 52.11375 1.80375 52.6875 1.1875 C54 0 54 0 56 0 C54.50923566 3.2826932 52.61379679 5.93077441 50.375 8.75 C49.74335937 9.54921875 49.11171875 10.3484375 48.4609375 11.171875 C47.97882812 11.77515625 47.49671875 12.3784375 47 13 C44.423151 10.49473014 42.12413689 8.18620534 40.125 5.1875 C38.06953007 2.59235737 38.06953007 2.59235737 34.25 2.6875 C33.1775 2.790625 32.105 2.89375 31 3 C32.2065625 4.11375 32.2065625 4.11375 33.4375 5.25 C37.28558303 9.75030049 36.89917469 15.33545068 37 21 C37.99 20.67 38.98 20.34 40 20 C38.37815499 23.58513106 36.20743761 26.58992323 33.875 29.75 C33.15054688 30.73484375 32.42609375 31.7196875 31.6796875 32.734375 C31.12539063 33.48203125 30.57109375 34.2296875 30 35 C33.36525504 35.24474582 34.94546964 35.29249549 38 34 C41.45520896 30.30241913 44.17396121 26.18593715 47 22 C49.140625 19.109375 49.140625 19.109375 51 17 C51.66 17 52.32 17 53 17 C49.07553595 25.06869809 43.97334098 34.82519828 35.48046875 38.5390625 C31.27223921 38.93807875 28.89097717 38.69230856 25 37 C20.40814464 33.08192038 17.21471884 28.04991755 14 23 C13.67 22.67 13.34 22.34 13 22 C12.67 26.95 12.34 31.9 12 37 C8.04 37 4.08 37 0 37 C0 24.79 0 12.58 0 0 Z " fill="#F8F8F8" transform="translate(1,30)"/>
<path d="M0 0 C1.47583955 0.0001591 2.95168467 0.00585225 4.42749023 0.01586914 C5.20293686 0.01728409 5.97838348 0.01869904 6.77732849 0.02015686 C9.26361893 0.02577194 11.74982059 0.03832693 14.23608398 0.05102539 C15.91772331 0.05603845 17.59936405 0.06060169 19.28100586 0.06469727 C23.41189965 0.07574626 27.54272674 0.09302094 31.67358398 0.11352539 C31.67358398 3.41352539 31.67358398 6.71352539 31.67358398 10.11352539 C28.37358398 10.11352539 25.07358398 10.11352539 21.67358398 10.11352539 C21.67358398 19.02352539 21.67358398 27.93352539 21.67358398 37.11352539 C17.50733398 37.27852539 13.34108398 37.44352539 9.04858398 37.61352539 C7.7458252 37.68635742 6.44306641 37.75918945 5.10083008 37.83422852 C-3.30445031 37.99559324 -3.30445031 37.99559324 -6.4309082 35.29711914 C-8.03735352 33.08227539 -8.03735352 33.08227539 -9.28881836 30.84594727 C-9.63122559 30.27424805 -9.97363281 29.70254883 -10.32641602 29.11352539 C-10.98641602 29.11352539 -11.64641602 29.11352539 -12.32641602 29.11352539 C-13.8384123 30.90628959 -13.8384123 30.90628959 -15.32641602 33.11352539 C-16.88891602 35.36352539 -16.88891602 35.36352539 -18.32641602 37.11352539 C-18.98641602 37.11352539 -19.64641602 37.11352539 -20.32641602 37.11352539 C-18.91664896 34.07499834 -17.23771374 31.51956589 -15.20141602 28.86352539 C-14.66258789 28.15711914 -14.12375977 27.45071289 -13.56860352 26.72290039 C-13.15868164 26.19180664 -12.74875977 25.66071289 -12.32641602 25.11352539 C-8.02521333 27.02517103 -6.12728102 29.37903872 -3.32641602 33.11352539 C-3.32641602 33.77352539 -3.32641602 34.43352539 -3.32641602 35.11352539 C-0.68641602 35.11352539 1.95358398 35.11352539 4.67358398 35.11352539 C4.24045898 34.55922852 3.80733398 34.00493164 3.36108398 33.43383789 C2.80420898 32.70938477 2.24733398 31.98493164 1.67358398 31.23852539 C1.11670898 30.51922852 0.55983398 29.79993164 -0.01391602 29.05883789 C-1.32641602 27.11352539 -1.32641602 27.11352539 -1.32641602 25.11352539 C3.69601539 26.78766919 4.12752852 29.14904774 7.67358398 34.11352539 C8.00358398 26.19352539 8.33358398 18.27352539 8.67358398 10.11352539 C1.75059948 10.26347584 1.75059948 10.26347584 -0.63891602 14.17602539 C-1.19579102 15.14540039 -1.75266602 16.11477539 -2.32641602 17.11352539 C-2.98641602 17.11352539 -3.64641602 17.11352539 -4.32641602 17.11352539 C-2.97712137 13.27689467 -1.24890576 10.4617997 1.29858398 7.30102539 C1.93022461 6.51083008 2.56186523 5.72063477 3.21264648 4.90649414 C3.69475586 4.31481445 4.17686523 3.72313477 4.67358398 3.11352539 C1.38974381 2.59577591 1.38974381 2.59577591 -2.32641602 3.11352539 C-4.43017119 5.19593812 -5.85098285 6.88473623 -7.45141602 9.30102539 C-8.26285773 10.46374619 -9.07793694 11.62393737 -9.89672852 12.78149414 C-10.48695801 13.62333252 -10.48695801 13.62333252 -11.08911133 14.48217773 C-12.95409708 16.94110331 -15.08533017 18.99605816 -17.32641602 21.11352539 C-16.71601036 17.87972192 -15.6290095 15.86352516 -13.63891602 13.25805664 C-12.8384082 12.20134766 -12.8384082 12.20134766 -12.02172852 11.12329102 C-11.46227539 10.39819336 -10.90282227 9.6730957 -10.32641602 8.92602539 C-9.76696289 8.18932617 -9.20750977 7.45262695 -8.63110352 6.69360352 C-3.62666927 0.12377257 -3.62666927 0.12377257 0 0 Z " fill="#FAFAFA" transform="translate(63.326416015625,29.886474609375)"/>
<path d="M0 0 C0.33 0 0.66 0 1 0 C1 8.91 1 17.82 1 27 C-3.16625 27.165 -7.3325 27.33 -11.625 27.5 C-12.92775879 27.57283203 -14.23051758 27.64566406 -15.57275391 27.72070312 C-23.97803429 27.88206785 -23.97803429 27.88206785 -27.10449219 25.18359375 C-28.7109375 22.96875 -28.7109375 22.96875 -29.96240234 20.73242188 C-30.30480957 20.16072266 -30.6472168 19.58902344 -31 19 C-31.66 19 -32.32 19 -33 19 C-34.51199628 20.7927642 -34.51199628 20.7927642 -36 23 C-37.5625 25.25 -37.5625 25.25 -39 27 C-39.66 27 -40.32 27 -41 27 C-39.59023295 23.96147295 -37.91129772 21.4060405 -35.875 18.75 C-35.33617187 18.04359375 -34.79734375 17.3371875 -34.2421875 16.609375 C-33.83226562 16.07828125 -33.42234375 15.5471875 -33 15 C-28.69879732 16.91164564 -26.800865 19.26551333 -24 23 C-24 23.66 -24 24.32 -24 25 C-21.36 25 -18.72 25 -16 25 C-16.433125 24.44570312 -16.86625 23.89140625 -17.3125 23.3203125 C-17.869375 22.59585938 -18.42625 21.87140625 -19 21.125 C-19.556875 20.40570313 -20.11375 19.68640625 -20.6875 18.9453125 C-22 17 -22 17 -22 15 C-18.51084189 16.41192627 -17.33029097 17.83015921 -15.5 21.0625 C-11.54166667 26.42708333 -11.54166667 26.42708333 0 26 C0 17.42 0 8.84 0 0 Z " fill="#C1C1C1" transform="translate(84,40)"/>
<path d="M0 0 C13.61733615 -0.9640592 13.61733615 -0.9640592 17.5546875 1.78125 C19.25055547 3.77970023 20.69687083 5.7283974 22 8 C22.763125 7.236875 23.52625 6.47375 24.3125 5.6875 C25.199375 4.800625 26.08625 3.91375 27 3 C27.556875 2.401875 28.11375 1.80375 28.6875 1.1875 C30 0 30 0 32 0 C30.50923566 3.2826932 28.61379679 5.93077441 26.375 8.75 C25.74335937 9.54921875 25.11171875 10.3484375 24.4609375 11.171875 C23.97882812 11.77515625 23.49671875 12.3784375 23 13 C20.49844464 10.56793229 18.20617322 8.30557816 16.25 5.40625 C13.3389114 2.29300247 11.43198282 2.14751811 7.25 1.6875 C5.1875 1.460625 3.125 1.23375 1 1 C1 6.28 1 11.56 1 17 C0.34 16.67 -0.32 16.34 -1 16 C-0.67 10.72 -0.34 5.44 0 0 Z " fill="#DBDBDB" transform="translate(25,30)"/>
<path d="M0 0 C1.47583955 0.0001591 2.95168467 0.00585225 4.42749023 0.01586914 C5.20293686 0.01728409 5.97838348 0.01869904 6.77732849 0.02015686 C9.26361893 0.02577194 11.74982059 0.03832693 14.23608398 0.05102539 C15.91772331 0.05603845 17.59936405 0.06060169 19.28100586 0.06469727 C23.41189965 0.07574626 27.54272674 0.09302094 31.67358398 0.11352539 C31.67358398 0.44352539 31.67358398 0.77352539 31.67358398 1.11352539 C30.92786133 1.13858154 30.18213867 1.1636377 29.41381836 1.18945312 C26.00026802 1.30625757 22.58693709 1.42859784 19.17358398 1.55102539 C17.41401367 1.61 17.41401367 1.61 15.61889648 1.67016602 C12.30201572 1.79128807 8.98859184 1.94994468 5.67358398 2.11352539 C4.46255005 2.13261963 4.46255005 2.13261963 3.22705078 2.15209961 C-0.80285217 2.35807981 -2.21238812 3.00061386 -5.11938477 5.87915039 C-5.94162069 7.02370279 -6.73963605 8.18600144 -7.51391602 9.36352539 C-8.31624749 10.51711992 -9.12221184 11.6681967 -9.93188477 12.81665039 C-10.31908691 13.3715918 -10.70628906 13.9265332 -11.10522461 14.49829102 C-12.96174334 16.95385438 -15.09117525 19.00136182 -17.32641602 21.11352539 C-16.71601036 17.87972192 -15.6290095 15.86352516 -13.63891602 13.25805664 C-12.8384082 12.20134766 -12.8384082 12.20134766 -12.02172852 11.12329102 C-11.46227539 10.39819336 -10.90282227 9.6730957 -10.32641602 8.92602539 C-9.48723633 7.82097656 -9.48723633 7.82097656 -8.63110352 6.69360352 C-3.62666927 0.12377257 -3.62666927 0.12377257 0 0 Z " fill="#D5D5D5" transform="translate(63.326416015625,29.886474609375)"/>
<path d="M0 0 C0.66 0 1.32 0 2 0 C-6.75009056 17.99018618 -6.75009056 17.99018618 -13.93359375 20.74023438 C-18.03864026 21.37834556 -21.96863333 20.85875266 -26 20 C-25.360625 19.87625 -24.72125 19.7525 -24.0625 19.625 C-23.381875 19.41875 -22.70125 19.2125 -22 19 C-21.67 18.34 -21.34 17.68 -21 17 C-19.865625 17.2475 -18.73125 17.495 -17.5625 17.75 C-15.29688443 17.89703445 -15.29688443 17.89703445 -13 17 C-9.48882028 13.33989586 -6.80893747 9.20812625 -4 5 C-1.859375 2.10546875 -1.859375 2.10546875 0 0 Z " fill="#D0D0D0" transform="translate(52,47)"/>
<path d="M0 0 C1.32 0.33 2.64 0.66 4 1 C3.278125 1.680625 2.55625 2.36125 1.8125 3.0625 C-1.23455693 6.09214518 -3.57207954 9.46217304 -6 13 C-5.34 13.33 -4.68 13.66 -4 14 C-4.99 14 -5.98 14 -7 14 C-7.74609375 12.328125 -7.74609375 12.328125 -8 10 C-6.34765625 7.421875 -6.34765625 7.421875 -4.0625 4.75 C-2.93521484 3.41195312 -2.93521484 3.41195312 -1.78515625 2.046875 C-1.19605469 1.37140625 -0.60695313 0.6959375 0 0 Z " fill="#272727" transform="translate(49,54)"/>
<path d="M0 0 C-1.49076434 3.2826932 -3.38620321 5.93077441 -5.625 8.75 C-6.57246094 9.94882812 -6.57246094 9.94882812 -7.5390625 11.171875 C-8.02117188 11.77515625 -8.50328125 12.3784375 -9 13 C-9.66 12.67 -10.32 12.34 -11 12 C-10.52575143 7.73176286 -8.04238597 5.82507269 -5 3 C-4.443125 2.401875 -3.88625 1.80375 -3.3125 1.1875 C-2 0 -2 0 0 0 Z " fill="#CACACA" transform="translate(57,30)"/>
<path d="M0 0 C0.99 0.33 1.98 0.66 3 1 C0.03 4.63 -2.94 8.26 -6 12 C-6.33 11.01 -6.66 10.02 -7 9 C-5.56640625 6.73828125 -5.56640625 6.73828125 -3.5625 4.3125 C-2.90378906 3.50425781 -2.24507812 2.69601563 -1.56640625 1.86328125 C-1.04949219 1.24839844 -0.53257813 0.63351563 0 0 Z " fill="#CCCCCC" transform="translate(53,39)"/>
<path d="M0 0 C0.99 0.33 1.98 0.66 3 1 C0.36 4.3 -2.28 7.6 -5 11 C-5.33 9.68 -5.66 8.36 -6 7 C-4.78515625 5.078125 -4.78515625 5.078125 -3.0625 3.25 C-2.49660156 2.63640625 -1.93070313 2.0228125 -1.34765625 1.390625 C-0.90292969 0.93171875 -0.45820312 0.4728125 0 0 Z " fill="#262626" transform="translate(55,33)"/>
<path d="M0 0 C0.99 0.66 1.98 1.32 3 2 C2.236875 2.7425 1.47375 3.485 0.6875 4.25 C-1.95571199 6.823554 -1.95571199 6.823554 -3.6875 9.3125 C-4.3371875 10.1478125 -4.3371875 10.1478125 -5 11 C-5.66 11 -6.32 11 -7 11 C-5.22054913 6.95579349 -2.60470327 3.53921513 0 0 Z " fill="#CCCCCC" transform="translate(50,56)"/>
<path d="M0 0 C0.33 0 0.66 0 1 0 C1.33 3.96 1.66 7.92 2 12 C2.99 11.67 3.98 11.34 5 11 C3.84826645 13.46800047 2.95216435 15.04783565 1 17 C-0.53266582 13.93466836 -0.10276471 10.73245728 -0.0625 7.375 C-0.05798828 6.66859375 -0.05347656 5.9621875 -0.04882812 5.234375 C-0.03703875 3.48954725 -0.01910324 1.744763 0 0 Z " fill="#D2D2D2" transform="translate(36,39)"/>
<path d="M0 0 C0.33 0.99 0.66 1.98 1 3 C-0.8125 6.1875 -0.8125 6.1875 -3 9 C-3.66 9 -4.32 9 -5 9 C-3.7508258 5.54074837 -2.32472205 2.85306797 0 0 Z " fill="#CECECE" transform="translate(64,38)"/>
</svg>
